<svg width="60" height="60" fill="none" xmlns="http://www.w3.org/2000/svg"><mask id="a" mask-type="alpha" maskUnits="userSpaceOnUse" x="0" y="0" width="60" height="60"><path d="M9.14 50.86c11.52 11.52 30.2 11.52 41.72 0s11.52-30.2 0-41.72-30.2-11.52-41.72 0-11.52 30.2 0 41.72z" stroke="#000"/></mask><g mask="url(#a)"><path d="M30 30L5.86 5.86l-6.036 6.035L30 30z" fill="url(#paint0_linear)"/><path d="M30 30l24.14 24.14 6.035-6.035L30 30z" fill="url(#paint1_linear)"/><path d="M30 30L-2.648 20.02l-2.496 8.162L30 30z" fill="url(#paint2_linear)"/><path d="M30 30l32.648 9.981 2.496-8.162L30 30z" fill="url(#paint3_linear)"/><path d="M30 30l-34.093-1.787-.447 8.524L30 30z" fill="url(#paint4_linear)"/><path d="M30 30l34.093 1.787.447-8.523L30 30z" fill="url(#paint5_linear)"/><path d="M30 30l-33.512 6.514 1.628 8.378L30 30z" fill="url(#paint6_linear)"/><path d="M30 30l33.513-6.514-1.629-8.379L30 30z" fill="url(#paint7_linear)"/><path d="M30 30L-.94 44.428l3.606 7.735L30 30z" fill="url(#paint8_linear)"/><path d="M30 30l30.941-14.428-3.607-7.735L30 30z" fill="url(#paint9_linear)"/><path d="M30 30L.736 12.417l-4.395 7.316L30 30z" fill="url(#paint10_linear)"/><path d="M30 30l29.264 17.583 4.395-7.316L30 30z" fill="url(#paint11_linear)"/><path d="M30 30L3.468 51.486l5.371 6.633L30 30z" fill="url(#paint12_linear)"/><path d="M30 30L56.532 8.515 51.16 1.882 30 30z" fill="url(#paint13_linear)"/><path d="M30 30L9.454 57.266l6.816 5.136L30 30z" fill="url(#paint14_linear)"/><path d="M30 30L50.546 2.735 43.73-2.402 30 30z" fill="url(#paint15_linear)"/><path d="M30 30L16.66 61.426l7.857 3.335L30 30z" fill="url(#paint16_linear)"/><path d="M30 30L43.34-1.426 35.483-4.76 30 30z" fill="url(#paint17_linear)"/><path d="M30 30l-5.34 33.72 8.43 1.335L30 30z" fill="url(#paint18_linear)"/><path d="M30 30l5.34-33.72-8.43-1.335L30 30z" fill="url(#paint19_linear)"/><path d="M30 30l2.975 34.01 8.503-.744L30 30z" fill="url(#paint20_linear)"/><path d="M30 30L27.024-4.01l-8.502.744L30 30z" fill="url(#paint21_linear)"/><path d="M30 30l11.115 32.28 8.07-2.779L30 30z" fill="url(#paint22_linear)"/><path d="M30 30L18.885-2.28 10.815.5 30 30z" fill="url(#paint23_linear)"/><path d="M30 30l18.595 28.632 6.551-3.486L30.001 30z" fill="url(#paint24_linear)"/><path d="M30.001 30L11.407 1.367 4.854 4.854 30 30z" fill="url(#paint25_linear)"/></g><defs><linearGradient id="paint0_linear" x1="8.787" y1="8.787" x2="3.463" y2="14.111" gradientUnits="userSpaceOnUse"><stop stop-color="#0A0E12"/><stop offset="1" stop-color="#0A0E12" stop-opacity=".962"/></linearGradient><linearGradient id="paint1_linear" x1="51.213" y1="51.213" x2="56.537" y2="45.889" gradientUnits="userSpaceOnUse"><stop stop-color="#0A0E12" stop-opacity=".506"/><stop offset="1" stop-color="#0A0E12" stop-opacity=".468"/></linearGradient><linearGradient id="paint2_linear" x1="1.311" y1="21.229" x2="-.891" y2="28.429" gradientUnits="userSpaceOnUse"><stop stop-color="#0A0E12" stop-opacity=".924"/><stop offset="1" stop-color="#0A0E12" stop-opacity=".886"/></linearGradient><linearGradient id="paint3_linear" x1="58.689" y1="38.771" x2="60.891" y2="31.571" gradientUnits="userSpaceOnUse"><stop stop-color="#0A0E12" stop-opacity=".43"/><stop offset="1" stop-color="#0A0E12" stop-opacity=".392"/></linearGradient><linearGradient id="paint4_linear" x1=".041" y1="28.43" x2="-.353" y2="35.949" gradientUnits="userSpaceOnUse"><stop stop-color="#0A0E12" stop-opacity=".886"/><stop offset="1" stop-color="#0A0E12" stop-opacity=".848"/></linearGradient><linearGradient id="paint5_linear" x1="59.959" y1="31.57" x2="60.353" y2="24.052" gradientUnits="userSpaceOnUse"><stop stop-color="#0A0E12" stop-opacity=".392"/><stop offset="1" stop-color="#0A0E12" stop-opacity=".354"/></linearGradient><linearGradient id="paint6_linear" x1=".551" y1="35.724" x2="1.988" y2="43.115" gradientUnits="userSpaceOnUse"><stop stop-color="#0A0E12" stop-opacity=".848"/><stop offset="1" stop-color="#0A0E12" stop-opacity=".81"/></linearGradient><linearGradient id="paint7_linear" x1="59.449" y1="24.276" x2="58.012" y2="16.884" gradientUnits="userSpaceOnUse"><stop stop-color="#0A0E12" stop-opacity=".354"/><stop offset="1" stop-color="#0A0E12" stop-opacity=".316"/></linearGradient><linearGradient id="paint8_linear" x1="2.811" y1="42.678" x2="5.993" y2="49.502" gradientUnits="userSpaceOnUse"><stop stop-color="#0A0E12" stop-opacity=".81"/><stop offset="1" stop-color="#0A0E12" stop-opacity=".772"/></linearGradient><linearGradient id="paint9_linear" x1="57.189" y1="17.322" x2="54.007" y2="10.498" gradientUnits="userSpaceOnUse"><stop stop-color="#0A0E12" stop-opacity=".316"/><stop offset="1" stop-color="#0A0E12" stop-opacity=".278"/></linearGradient><linearGradient id="paint10_linear" x1="4.285" y1="14.549" x2=".407" y2="21.003" gradientUnits="userSpaceOnUse"><stop stop-color="#0A0E12" stop-opacity=".962"/><stop offset="1" stop-color="#0A0E12" stop-opacity=".924"/></linearGradient><linearGradient id="paint11_linear" x1="55.715" y1="45.451" x2="59.593" y2="38.997" gradientUnits="userSpaceOnUse"><stop stop-color="#0A0E12" stop-opacity=".468"/><stop offset="1" stop-color="#0A0E12" stop-opacity=".43"/></linearGradient><linearGradient id="paint12_linear" x1="6.685" y1="48.88" x2="11.424" y2="54.731" gradientUnits="userSpaceOnUse"><stop stop-color="#0A0E12" stop-opacity=".772"/><stop offset="1" stop-color="#0A0E12" stop-opacity=".734"/></linearGradient><linearGradient id="paint13_linear" x1="53.315" y1="11.12" x2="48.576" y2="5.269" gradientUnits="userSpaceOnUse"><stop stop-color="#0A0E12" stop-opacity=".278"/><stop offset="1" stop-color="#0A0E12" stop-opacity=".24"/></linearGradient><linearGradient id="paint14_linear" x1="11.945" y1="53.959" x2="17.959" y2="58.491" gradientUnits="userSpaceOnUse"><stop stop-color="#0A0E12" stop-opacity=".734"/><stop offset="1" stop-color="#0A0E12" stop-opacity=".696"/></linearGradient><linearGradient id="paint15_linear" x1="48.055" y1="6.041" x2="42.041" y2="1.51" gradientUnits="userSpaceOnUse"><stop stop-color="#0A0E12" stop-opacity=".24"/><stop offset="1" stop-color="#0A0E12" stop-opacity=".202"/></linearGradient><linearGradient id="paint16_linear" x1="18.278" y1="57.615" x2="25.209" y2="60.557" gradientUnits="userSpaceOnUse"><stop stop-color="#0A0E12" stop-opacity=".696"/><stop offset="1" stop-color="#0A0E12" stop-opacity=".658"/></linearGradient><linearGradient id="paint17_linear" x1="41.722" y1="2.385" x2="34.792" y2="-.557" gradientUnits="userSpaceOnUse"><stop stop-color="#0A0E12" stop-opacity=".202"/><stop offset="1" stop-color="#0A0E12" stop-opacity=".164"/></linearGradient><linearGradient id="paint18_linear" x1="25.307" y1="59.631" x2="32.744" y2="60.809" gradientUnits="userSpaceOnUse"><stop stop-color="#0A0E12" stop-opacity=".658"/><stop offset="1" stop-color="#0A0E12" stop-opacity=".62"/></linearGradient><linearGradient id="paint19_linear" x1="34.693" y1=".369" x2="27.256" y2="-.809" gradientUnits="userSpaceOnUse"><stop stop-color="#0A0E12" stop-opacity=".164"/><stop offset="1" stop-color="#0A0E12" stop-opacity=".126"/></linearGradient><linearGradient id="paint20_linear" x1="32.614" y1="59.886" x2="40.115" y2="59.23" gradientUnits="userSpaceOnUse"><stop stop-color="#0A0E12" stop-opacity=".62"/><stop offset="1" stop-color="#0A0E12" stop-opacity=".58"/></linearGradient><linearGradient id="paint21_linear" x1="27.385" y1=".114" x2="19.884" y2=".771" gradientUnits="userSpaceOnUse"><stop stop-color="#0A0E12" stop-opacity=".126"/><stop offset="1" stop-color="#0A0E12" stop-opacity=".088"/></linearGradient><linearGradient id="paint22_linear" x1="39.767" y1="58.366" x2="46.886" y2="55.914" gradientUnits="userSpaceOnUse"><stop stop-color="#0A0E12" stop-opacity=".58"/><stop offset="1" stop-color="#0A0E12" stop-opacity=".544"/></linearGradient><linearGradient id="paint23_linear" x1="20.233" y1="1.634" x2="13.114" y2="4.086" gradientUnits="userSpaceOnUse"><stop stop-color="#0A0E12" stop-opacity=".088"/><stop offset="1" stop-color="#0A0E12" stop-opacity=".05"/></linearGradient><linearGradient id="paint24_linear" x1="46.649" y1="55.635" x2="52.118" y2="52.083" gradientUnits="userSpaceOnUse"><stop stop-color="#0A0E12" stop-opacity=".544"/><stop offset="1" stop-color="#0A0E12" stop-opacity=".506"/></linearGradient><linearGradient id="paint25_linear" x1="13.353" y1="4.363" x2="7.882" y2="7.916" gradientUnits="userSpaceOnUse"><stop stop-color="#0A0E12" stop-opacity=".05"/><stop offset="1" stop-color="#0A0E12" stop-opacity=".012"/></linearGradient></defs></svg>